<?xml version="1.0" standalone="no"?><!DOCTYPE svg PUBLIC "-//W3C//DTD SVG 1.1//EN" "http://www.w3.org/Graphics/SVG/1.1/DTD/svg11.dtd"><svg t="1509264611849" class="icon" style="" viewBox="0 0 1024 1024" version="1.1" xmlns="http://www.w3.org/2000/svg" p-id="1013" xmlns:xlink="http://www.w3.org/1999/xlink" width="200" height="200"><defs><style type="text/css"></style></defs><path d="M938.666667 957.866667 938.666667 957.866667l-85.333333-640 0 0c-2.133333-10.666667-10.666667-19.2-21.333333-19.2l-149.333333 0 0-85.333333c0-93.866667-76.8-170.666667-170.666667-170.666667s-170.666667 76.8-170.666667 170.666667l0 85.333333L192 298.666667c-10.666667 0-19.2 8.533333-21.333333 19.2l0 0-85.333333 640 0 0c0 0 0 2.133333 0 2.133333 0 12.8 8.533333 21.333333 21.333333 21.333333l810.666667 0c12.8 0 21.333333-8.533333 21.333333-21.333333C938.666667 960 938.666667 957.866667 938.666667 957.866667zM384 213.333333c0-70.4 57.6-128 128-128 70.4 0 128 57.6 128 128l0 85.333333L384 298.666667 384 213.333333zM211.2 341.333333 341.333333 341.333333l0 91.733333c-12.8 6.4-21.333333 21.333333-21.333333 36.266667 0 23.466667 19.2 42.666667 42.666667 42.666667s42.666667-19.2 42.666667-42.666667c0-14.933333-8.533333-29.866667-21.333333-36.266667L384 341.333333l256 0 0 91.733333c-12.8 6.4-21.333333 21.333333-21.333333 36.266667 0 23.466667 19.2 42.666667 42.666667 42.666667s42.666667-19.2 42.666667-42.666667c0-14.933333-8.533333-29.866667-21.333333-36.266667L682.666667 341.333333l130.133333 0 68.266667 512L142.933333 853.333333 211.2 341.333333zM130.133333 938.666667l6.4-42.666667 750.933333 0 6.4 42.666667L130.133333 938.666667z" p-id="1014"></path></svg>