<?xml version="1.0" standalone="no"?><!DOCTYPE svg PUBLIC "-//W3C//DTD SVG 1.1//EN" "http://www.w3.org/Graphics/SVG/1.1/DTD/svg11.dtd"><svg t="1509267724793" class="icon" style="" viewBox="0 0 1025 1024" version="1.1" xmlns="http://www.w3.org/2000/svg" p-id="6884" xmlns:xlink="http://www.w3.org/1999/xlink" width="128.125" height="128"><defs><style type="text/css"></style></defs><path d="M915.546112 317.2096l-370.49344 390.457344 4.80768-5.070848c-14.429184 15.210496-33.283072 23.023616-56.542208 23.4496-23.268352 0.428032-42.108928-6.970368-56.543232-22.187008l-167.23968-177.512448c-14.434304-15.218688-21.444608-33.1776-21.050368-53.886976 0.401408-20.708352 7.817216-38.66624 22.260736-53.883904 14.435328-15.21152 32.077824-22.616064 52.93056-22.189056 20.859904 0.427008 38.503424 8.239104 52.93056 23.457792l116.7104 121.718784 331.93984-349.827072C744.480768 112.713728 633.928704 64.001024 512 64.001024c-247.421952 0-448 200.578048-448 448S264.578048 960 512 960s448.001024-200.577024 448.001024-447.998976C960.001024 442.189824 944.028672 376.108032 915.546112 317.2096z" p-id="6885" fill="#777777"></path></svg>