<svg xmlns="http://www.w3.org/2000/svg" width="512" height="512" viewBox="0 0 512 512"><path fill="#1C3377" d="M512 472c0 22.1-17.9 40-40 40H40c-22.1 0-40-17.9-40-40V40C0 17.9 17.9 0 40 0h432c22.1 0 40 17.9 40 40v432z"/><path fill-rule="evenodd" clip-rule="evenodd" fill="#FFF" d="M358.6 193.3c33.7.2 67.7.1 101.1.6-3.1 10.3-6.5 20.2-9.7 30.5-16.3-.2-33.2.3-49-.3-2 3.5-2.3 8.6-3.2 13.2-16.7 1.2-33.6 2.2-49.5 4.1 3.6-16 6.6-32.4 10.3-48.1zM389.1 278c-.8 3-1.1 6.3-2.1 9.1 13.4.6 30.3.1 45.1.3-2.5 10.3-6.4 21.8-9.4 32.5-30.1-.3-60.6-.2-90.6-.6 3.1-13 5-27.3 8.8-39.6 16.4-.8 31.3-1.4 48.2-1.7z"/><path fill="#E01B22" d="M46 319.3s188.6-89.8 420-82.1l-12.5 41s-249.7-1.2-398.8 41l-8.7.1z"/><path fill-rule="evenodd" clip-rule="evenodd" fill="#FFF" d="M157.2 192.1c15.2.2 31 .4 47.2.3-3.1 17.3-7.6 35.2-10.8 53.1-3.2 17.6-6.3 36-13.2 50.7-7.8 10.1-17.8 17.8-33.1 20.8-15.2 3-33.8.8-52.2 1.5 3.4-13.3 8-25.4 11.4-38.7 11.5-.3 25.2 2.5 30.8-4.4 3.7-4.5 4.3-12.6 5.9-19.6 4.6-20.6 9.3-43.5 13.8-62.7-.1-.5-.1-1 .2-1zM212.6 192.4c16.2.1 32.2.4 48.7.3 9.9 18.1 18 38.1 27.6 56.6 5.1-17.9 8.2-37.9 12.9-56.3 15.8 0 33.3-.1 47.8.3-8.8 42.7-17 83.8-26.1 126-16.9.1-33-.1-49-.3-8.7-19.6-17.3-39.3-26.7-58.3-5.2 18.7-8.7 38.9-13.2 58.3-16.2-.1-32-.5-48.4-.3 8.8-41.5 17.2-84.5 26.4-126.3z"/></svg>