<?xml version="1.0" standalone="no"?><!DOCTYPE svg PUBLIC "-//W3C//DTD SVG 1.1//EN" "http://www.w3.org/Graphics/SVG/1.1/DTD/svg11.dtd"><svg t="1512367164600" class="icon" style="" viewBox="0 0 1024 1024" version="1.1" xmlns="http://www.w3.org/2000/svg" p-id="990" xmlns:xlink="http://www.w3.org/1999/xlink" width="200" height="200"><defs><style type="text/css"></style></defs><path d="M378.88 611.84l12.8 46.08c0 2.56 5.12 5.12 7.68 5.12H793.6v51.2H396.8c-25.6 0-51.2-20.48-56.32-46.08l-102.4-409.6c-2.56 2.56-5.12-2.56-7.68-2.56H102.4V204.8h128c25.6 0 51.2 20.48 56.32 46.08l7.68 30.72h558.08c33.28 0 53.76 28.16 40.96 58.88l-71.68 181.76c-7.68 23.04-33.28 40.96-56.32 43.52l-386.56 46.08z m-12.8-48.64L307.2 332.8h529.92l-66.56 171.52c-2.56 5.12-10.24 10.24-15.36 10.24L366.08 563.2zM409.6 870.4c28.16 0 51.2-23.04 51.2-51.2s-23.04-51.2-51.2-51.2-51.2 23.04-51.2 51.2 23.04 51.2 51.2 51.2z m281.6 0c28.16 0 51.2-23.04 51.2-51.2s-23.04-51.2-51.2-51.2-51.2 23.04-51.2 51.2 23.04 51.2 51.2 51.2z" fill="" p-id="991"></path></svg>