<?xml version="1.0" standalone="no"?><!DOCTYPE svg PUBLIC "-//W3C//DTD SVG 1.1//EN" "http://www.w3.org/Graphics/SVG/1.1/DTD/svg11.dtd"><svg t="1509358808736" class="icon" style="" viewBox="0 0 1024 1024" version="1.1" xmlns="http://www.w3.org/2000/svg" p-id="3461" xmlns:xlink="http://www.w3.org/1999/xlink" width="128" height="128"><defs><style type="text/css"></style></defs><path d="M512 137.9c-206.6 0-374.1 167.5-374.1 374.1 0 206.6 167.5 374.1 374.1 374.1S886.1 718.6 886.1 512c0-206.6-167.5-374.1-374.1-374.1z m155.9 498.5c8.6 8.6 8.6 22.5 0 31.1-8.6 8.6-22.5 8.6-31.1 0L512.2 543 387.7 667.5c-8.6 8.6-22.5 8.6-31.1 0-8.6-8.6-8.6-22.5 0-31.1l124.5-124.5-124.5-124.5c-8.6-8.6-8.6-22.5 0-31.1 8.6-8.6 22.5-8.6 31.1 0l124.5 124.5 124.5-124.5c8.6-8.6 22.5-8.6 31.1 0 8.6 8.6 8.6 22.5 0 31.1L543.4 511.9l124.5 124.5z" fill="#888888" p-id="3462"></path></svg>