<?xml version="1.0" standalone="no"?><!DOCTYPE svg PUBLIC "-//W3C//DTD SVG 1.1//EN" "http://www.w3.org/Graphics/SVG/1.1/DTD/svg11.dtd"><svg t="1509189890736" class="icon" style="" viewBox="0 0 1024 1024" version="1.1" xmlns="http://www.w3.org/2000/svg" p-id="4802" xmlns:xlink="http://www.w3.org/1999/xlink" width="200" height="200"><defs><style type="text/css"></style></defs><path d="M516.074 770.134c4.366 0 8.808-0.269 13.28-0.8 42.89-5.147 79.309-35.126 92.75-76.438 1.016-3.09-0.45-6.4-3.408-7.759-2.925-1.362-6.464-0.185-8.12 2.587-0.156 0.264-17.197 27.788-83.535 36.747-9.932 1.332-19.595 2.031-28.754 2.031-46.478-0.03-67.19-17.547-67.38-17.709-2.338-2.08-5.908-2.134-8.306-0.107-2.421 2.026-2.979 5.547-1.327 8.241 20.234 32.803 56.54 53.207 94.8 53.207z m0 0" fill="" p-id="4803"></path><path d="M872.776 358.996c-0.586 0-1.118 0.108-1.673 0.108C832.23 190.822 683.709 65.29 505.636 65.29c-182.97 0-334.901 132.464-368.576 307.71-32.742 5.892-57.664 34.67-57.664 69.475v139.294c0 39.04 31.307 70.7 69.964 70.7 21.805 0 41.052-10.298 53.854-26.112 30.936 81.822 93.916 147.795 173.62 182.603 0.19-0.415 1.698-3.349 3.515-5.688 1.254-1.621 2.66-2.948 3.867-2.948 1.25 0 2.397 0.453 3.379 1.146-18.446-13.735-85.08-84.33-99.512-182.848-6.332-43.361 26.147-85.928 63.972-92.969 60.725-11.307 121.132-24.188 181.857-35.28 38.602-7.042 64.982-28.217 81.113-63.474 3.78-8.242 9.239-24.906 11.744-48.939 0.664-3.573 3.594-6.317 7.348-6.317 2.505 0 4.634 1.28 6.045 3.12l1.675-1.04c23.934 34.75 71.398 111.69 78.213 192.818 7.828 92.755 3.461 156.283-67.535 221.275a4.524 4.524 0 0 1-0.293 0.269 5.805 5.805 0 0 0-1.573 3.973c0 1.998 1.065 3.707 2.607 4.747 0.587 0.239 1.173 0.56 1.76 0.8 0.477 0.108 0.931 0.265 1.41 0.265 0.482 0 0.908-0.157 1.333-0.264 1.01-0.532 1.968-1.147 2.953-1.68 71.8-39.555 126.879-105.61 152.331-185.06 10.304 15.306 26.435 26.322 45.174 30.165-30.057 136.702-151.98 222.26-303.032 235.248-9.053-22.456-31.336-38.402-57.506-38.402-34.179 0-61.892 27.07-61.892 60.432 0 33.364 27.71 60.402 61.892 60.402 27.557 0 50.636-17.704 58.649-42.03 174.85-14.212 315.015-118.142 344.276-279.625 25.848-10.804 44.002-36.164 44.002-65.768V430.342c-0.002-39.393-32.164-71.346-71.83-71.346z m-64.503 40.487C762.67 275.95 644.497 187.701 505.479 187.701c-138.435 0-256.183 87.5-302.212 210.235-2.29-2.803-4.976-5.2-7.612-7.627 26.058-149.563 154.778-263.278 309.98-263.278 154.46 0 282.78 112.598 309.691 261.121-2.658 3.573-5.11 7.303-7.053 11.331z m0 0" fill="" p-id="4804"></path><path d="M376.843 808.961h-0.005c-0.033 0.063-0.033 0.073 0.005 0z m0 0" fill="" p-id="4805"></path></svg>