<?xml version="1.0" standalone="no"?><!DOCTYPE svg PUBLIC "-//W3C//DTD SVG 1.1//EN" "http://www.w3.org/Graphics/SVG/1.1/DTD/svg11.dtd"><svg t="1509265443705" class="icon" style="" viewBox="0 0 1024 1024" version="1.1" xmlns="http://www.w3.org/2000/svg" p-id="4416" xmlns:xlink="http://www.w3.org/1999/xlink" width="128" height="128"><defs><style type="text/css"></style></defs><path d="M788.224 369.186133l-50.1248 0c0-88.695467-10.308267-159.982933-30.634667-211.933867-15.9744-40.772267-38.126933-69.512533-65.8432-85.384533-72.004267-41.301333-163.925333 12.629333-164.881067 13.1584l-25.565867-43.4176c4.795733-2.833067 118.203733-69.2736 215.261867-13.6192C747.246933 74.359467 788.224 189.149867 788.224 369.186133zM460.9536 685.499733c-30.498133 0-59.989333-7.867733-87.671467-23.364267-26.129067-14.626133-49.493333-35.4304-69.410133-61.832533-39.918933-52.872533-61.917867-122.794667-61.917867-196.864 0-74.103467 21.998933-144.008533 61.917867-196.898133 19.9168-26.350933 43.281067-47.189333 69.410133-61.815467 27.682133-15.496533 57.173333-23.364267 87.671467-23.364267s59.989333 7.867733 87.671467 23.364267c26.1632 14.626133 49.5104 35.447467 69.410133 61.815467 39.936 52.872533 61.934933 122.7776 61.934933 196.898133 0 74.069333-21.998933 144.008533-61.934933 196.864-19.899733 26.402133-43.246933 47.2064-69.410133 61.832533C520.925867 677.632 491.451733 685.499733 460.9536 685.499733zM460.9536 171.8272c-43.776 0-85.4016 23.1936-117.179733 65.28-33.3312 44.1344-51.694933 103.202133-51.694933 166.331733 0 63.112533 18.363733 122.180267 51.694933 166.331733 31.778133 42.103467 73.403733 65.262933 117.179733 65.262933 43.776 0 85.4528-23.159467 117.230933-65.262933 33.314133-44.151467 51.6608-103.2192 51.6608-166.331733 0-63.1296-18.346667-122.197333-51.6608-166.331733C546.372267 195.0208 504.7296 171.8272 460.9536 171.8272zM917.521067 1018.129067 5.905067 1018.129067 5.905067 949.930667c0-109.294933 49.578667-195.805867 143.342933-250.0608 69.137067-40.0384 137.6256-48.128 140.526933-48.4352l5.5808 50.158933-2.781867-25.070933 2.833067 25.070933c-0.6144 0.068267-62.327467 7.560533-122.487467 42.8032-77.550933 45.431467-116.906667 114.602667-116.906667 205.533867l0 17.732267 811.400533 0 0-7.560533c-2.133333-11.298133-14.592-72.2944-47.121067-131.959467-45.6192-83.8656-108.032-126.3616-185.531733-126.3616l0-50.466133c96.256 0 175.837867 53.162667 230.161067 153.838933 39.543467 73.198933 51.7632 145.527467 52.2752 148.565333L917.521067 955.733333 917.521067 1018.129067 917.521067 1018.129067zM1018.094933 847.36l-50.141867 0c0-166.894933-239.854933-279.074133-242.244267-280.200533l20.770133-45.943467c2.7136 1.262933 67.925333 31.368533 133.888 85.4016 39.338667 32.170667 70.792533 66.269867 93.4912 101.307733C1003.2128 753.134933 1018.094933 800.034133 1018.094933 847.36z" p-id="4417"></path></svg>