<?xml version="1.0" standalone="no"?><!DOCTYPE svg PUBLIC "-//W3C//DTD SVG 1.1//EN" "http://www.w3.org/Graphics/SVG/1.1/DTD/svg11.dtd"><svg t="1512383376907" class="icon" style="" viewBox="0 0 1024 1024" version="1.1" xmlns="http://www.w3.org/2000/svg" p-id="1863" xmlns:xlink="http://www.w3.org/1999/xlink" width="200" height="200"><defs><style type="text/css"></style></defs><path d="M424.448 686.272" p-id="1864" fill="#d12e7f"></path><path d="M939.904 134.144 84.096 134.144C37.696 134.144 0 166.016 0 205.376l0 471.616c0 39.36 37.696 71.232 84.096 71.232l179.776 0 0 141.632 143.104-141.632 532.864 0c46.528 0 84.096-31.872 84.096-71.232L1023.936 205.376C1024 166.016 986.368 134.144 939.904 134.144zM342.272 556.032 297.152 556.032 220.416 448c-13.376-18.752-27.392-40.384-41.6-65.152L177.728 382.848c1.344 28.736 1.984 51.136 1.984 66.88l0 106.304L136.768 556.032l0-234.88 45.12 0L259.2 430.464c16.768 24 30.592 45.376 41.088 63.936l1.088 0C299.968 463.872 299.136 441.536 299.136 427.648L299.136 321.216l43.136 0L342.272 556.032zM556.928 556.032 398.4 556.032l0-234.88 152.256 0 0 36.032L441.408 357.184l0 60.736 93.696 0 0 36.032L441.408 453.952l0 66.24 115.52 0L556.928 556.032zM823.616 556.032l-42.752 0-26.432-105.344c-5.824-23.744-11.2-46.4-15.936-67.712l-1.024 0c-4.352 21.888-9.536 44.352-15.68 67.712l-26.304 105.344-42.752 0-74.688-234.88 45.76 0 28.288 93.632c8.448 29.44 15.424 56 20.672 79.744l1.024 0c5.248-25.472 11.328-51.712 17.92-78.592l24.32-94.784 44.224 0L784.384 416c6.976 26.624 13.12 52.736 17.92 78.592l1.344 0c6.144-28.032 13.248-54.656 20.416-79.744l28.16-93.632 46.016 0L823.616 556.032z" p-id="1865" fill="#d12e7f"></path></svg>