<?xml version="1.0" standalone="no"?><!DOCTYPE svg PUBLIC "-//W3C//DTD SVG 1.1//EN" "http://www.w3.org/Graphics/SVG/1.1/DTD/svg11.dtd"><svg class="icon" width="200px" height="200.00px" viewBox="0 0 1024 1024" version="1.1" xmlns="http://www.w3.org/2000/svg"><path fill="#333333" d="M328.064 587.52H181.504c-20.224 0-36.608-16.384-36.608-36.608s16.384-36.608 36.608-36.608h109.824V404.48c0-20.224 16.384-36.608 36.608-36.608s36.608 16.384 36.608 36.608v146.432c0.128 20.352-16.256 36.608-36.48 36.608z m400.768 104.192c-70.912 0-130.176 49.664-145.664 115.712H441.472c-15.616-66.304-74.752-115.712-145.664-115.712-82.688 0-150.016 67.328-150.016 150.016 0 82.944 67.328 150.272 150.016 150.272 69.12 0 126.848-47.232 144.128-111.104h144.768C601.856 944.64 659.584 992 728.832 992c82.688 0 150.016-67.328 150.016-150.016 0-82.816-67.328-150.272-150.016-150.272zM295.68 918.528c-42.368 0-76.8-34.432-76.8-76.928 0-42.368 34.432-76.8 76.8-76.8s76.8 34.432 76.8 76.8c0 42.496-34.432 76.928-76.8 76.928z m433.152-0.256c-42.368 0-76.8-34.432-76.8-76.8s34.432-76.8 76.8-76.8 76.8 34.432 76.8 76.8-34.432 76.8-76.8 76.8zM914.176 38.272H382.72c-50.432 0-91.392 40.96-91.392 91.392V235.52l-222.72 111.872c-1.536 0.768-3.2 1.792-4.48 2.816C22.784 379.264 0 424.576 0 477.696v368.512c0 20.224 16.384 36.608 36.608 36.608s36.608-16.384 36.608-36.608V477.696c0-28.544 10.496-50.944 30.848-66.304l240.384-120.448c1.536-0.768 2.816-2.304 4.096-3.328 2.176-1.536 4.352-2.944 6.144-4.736 1.536-1.792 2.816-3.712 3.968-5.76 1.152-1.92 2.56-3.712 3.328-6.144 1.024-2.56 1.152-5.12 1.536-7.68 0.256-1.792 1.024-3.328 1.024-5.12V129.536c0-9.856 8.064-18.176 18.176-18.176h531.328c20.096 0 36.608 16.768 36.608 37.248v695.168c0 20.224 16.384 36.608 36.608 36.608s36.608-16.384 36.608-36.608v-695.04c0.128-60.928-49.28-110.464-109.696-110.464z"  /></svg>