<?xml version="1.0" standalone="no"?><!DOCTYPE svg PUBLIC "-//W3C//DTD SVG 1.1//EN" "http://www.w3.org/Graphics/SVG/1.1/DTD/svg11.dtd"><svg t="1512447399458" class="icon" style="" viewBox="0 0 1024 1024" version="1.1" xmlns="http://www.w3.org/2000/svg" p-id="2003" xmlns:xlink="http://www.w3.org/1999/xlink" width="200" height="200"><defs><style type="text/css"></style></defs><path d="M864.768 430.592H640c87.04-311.808-59.904-327.68-59.904-327.68-62.464 0-49.664 47.616-54.272 55.808 0 152.576-167.424 271.872-167.424 271.872v432.64c0 42.496 59.904 57.856 83.456 57.856h338.432c31.744 0 57.856-80.896 57.856-80.896 83.968-275.456 83.968-357.376 83.968-357.376-0.512-56.832-57.344-52.224-57.344-52.224z m-599.04 0h-134.656c-27.648 0-28.16 26.624-28.16 26.624l27.648 436.224c0 27.648 28.672 27.648 28.672 27.648H275.968c24.064 0 24.064-18.432 24.064-18.432v-439.296c0-33.28-34.304-32.768-34.304-32.768z" fill="#74c7f7" p-id="2004"></path></svg>